<svg width="55" height="55" viewBox="0 0 55 55" fill="none" xmlns="http://www.w3.org/2000/svg">
<line y1="-1.00063" x2="25.1916" y2="-1.00063" transform="matrix(0.669525 0.742789 -0.733506 0.679683 5.78979 2.80182)" stroke="black" stroke-width="2.00126"/>
<path d="M26.3174 1.33398C40.0978 1.33402 51.3008 12.6661 51.3008 26.6836C51.3007 40.701 40.0978 52.0332 26.3174 52.0332C12.5369 52.0332 1.33404 40.701 1.33398 26.6836C1.33398 12.6661 12.5369 1.33398 26.3174 1.33398Z" stroke="#AF1F1F" stroke-width="2.66835"/>
<line y1="-1.00063" x2="22.5399" y2="-1.00063" transform="matrix(0.669468 0.742841 -0.733558 0.679627 32.3702 31.8867)" stroke="black" stroke-width="2.00126"/>
<path d="M12.5489 38.0698L23.1028 14.1614H29.763L40.351 38.0698H33.3151L25.0496 17.4744H27.7137L19.4482 38.0698H12.5489ZM18.3211 33.4248L20.063 28.4382H31.744L33.4859 33.4248H18.3211Z" fill="#AF1F1F"/>
<path d="M52.476 52.8606L45.9859 49.4931L50.3573 45.7876L52.476 52.8606Z" fill="black"/>
</svg>
